# xmcd CD database file
#
# Track frame offsets:
#	150
#	12453
#	29118
#	43845
#	63465
#	78480
#	96338
#	111078
#	129078
#	141643
#	161785
#
# Disc length: 2418 seconds
#
# Revision: 0
# Processed by: cddbd v1.4PL0 Copyright (c) Steve Scherf et al.
# Submitted via: CDex 1.40Beta9
#
DISCID=a009700b
DTITLE=David Frizell - My Life Is Just A Bridge
DYEAR=1992
DGENRE=Country
TTITLE0=The One That Got Away
TTITLE1=My Life Is Just A Bridge
TTITLE2=Let Me Use Your Rolls Royce
TTITLE3=Here I Go Again (Still Lovin' You)
TTITLE4=I Go To Pieces
TTITLE5=They'd Have To Hold My Arm Up
TTITLE6=Fourty And Some
TTITLE7=A Silent Understanding
TTITLE8=I Should've Been Over You By Now
TTITLE9=This Ol' Piano
TTITLE10=Charlie Loves Hazel
EXTD=YEAR: 1992 ID3G: 2
EXTT0=
EXTT1=
EXTT2=
EXTT3=
EXTT4=
EXTT5=
EXTT6=
EXTT7=
EXTT8=
EXTT9=
EXTT10=
PLAYORDER=
